<svg width="16" height="16" viewBox="0 0 16 16" fill="none" xmlns="http://www.w3.org/2000/svg">
<path d="M8 15.8193L3.75736 11.5767C1.41421 9.23345 1.41421 5.43449 3.75736 3.09134C6.10051 0.748198 9.89947 0.748198 12.2427 3.09134C14.5858 5.43449 14.5858 9.23345 12.2427 11.5767L8 15.8193ZM11.2998 10.6338C13.1223 8.81138 13.1223 5.8566 11.2998 4.03415C9.4774 2.2117 6.52261 2.2117 4.70017 4.03415C2.87772 5.8566 2.87772 8.81138 4.70017 10.6338L8 13.9337L11.2998 10.6338ZM8 8.66732C7.2636 8.66732 6.66667 8.07038 6.66667 7.33398C6.66667 6.5976 7.2636 6.00065 8 6.00065C8.7364 6.00065 9.33333 6.5976 9.33333 7.33398C9.33333 8.07038 8.7364 8.66732 8 8.66732Z" fill="black" fill-opacity="0.64"/>
</svg>
